<svg width="61" height="61" viewBox="0 0 61 61" fill="none" xmlns="http://www.w3.org/2000/svg">
<path d="M27.2696 9.32092C26.6277 10.5636 25.5701 11.5877 24.3232 12.4432C22.6945 12.7931 21.0067 12.9785 19.2508 12.8468C18.009 12.7536 16.8884 12.1209 15.9926 11.2532L14.8553 10.1514C14.1706 9.48813 13.2276 9.16419 12.2814 9.26722L11.9842 9.29958C10.7484 9.43413 9.74802 10.3681 9.52555 11.5949C9.35759 12.5212 9.66219 13.4703 10.3373 14.1243L12.0649 15.798C12.5827 16.2996 13.0532 16.8656 13.2829 17.5498C13.8955 19.3753 13.6645 21.4814 13.0928 23.5324C12.3421 24.3908 11.506 25.1941 10.5516 25.9084C9.55343 26.6553 8.29396 26.9154 7.05041 26.85L5.47156 26.767C4.52104 26.717 3.5975 27.0932 2.95073 27.7937L2.74759 28.0137C1.90293 28.9286 1.75872 30.2918 2.39316 31.3642C2.87215 32.1737 3.72277 32.6896 4.65995 32.7389L7.05837 32.865C7.77713 32.9028 8.50243 33.0202 9.12325 33.3856C11.1329 34.5681 12.4753 36.8799 13.4365 39.2772C13.4924 40.1136 13.4896 40.9645 13.4098 41.8305C13.2953 43.0744 12.6452 44.1874 11.7647 45.0707L10.6467 46.1922C9.97368 46.8674 9.63436 47.8076 9.72053 48.7585L9.7476 49.0572C9.86014 50.2991 10.7735 51.3188 11.9924 51.5633C12.9127 51.7479 13.864 51.459 14.5276 50.7933L16.2259 49.0896C16.7348 48.5791 17.3071 48.1169 17.9932 47.8986C19.8488 47.3078 21.9767 47.592 24.0376 48.2193C25.0018 48.9398 25.9134 49.758 26.7351 50.7157C27.5475 51.6624 27.894 52.9047 27.9157 54.1537L27.9433 55.7395C27.9599 56.6942 28.3984 57.5922 29.1401 58.1906L29.3731 58.3785C30.3418 59.16 31.7074 59.2092 32.7295 58.4995C33.5012 57.9637 33.9548 57.0764 33.9384 56.1351L33.8965 53.7262C33.884 53.0042 33.9502 52.2702 34.2701 51.6234C35.0107 50.1264 36.3492 48.9306 37.8989 47.9578C39.2019 47.7906 40.5381 47.7459 41.9094 47.8972C43.1472 48.0339 44.2451 48.7053 45.1101 49.6039L46.2084 50.7448C46.8696 51.4317 47.8008 51.7884 48.75 51.7186L49.0482 51.6967C50.2879 51.6055 51.3201 50.7071 51.5851 49.4888C51.7852 48.569 51.5138 47.6098 50.8619 46.9325L49.1935 45.1994C48.6936 44.68 48.243 44.0979 48.0373 43.406C47.4771 41.5218 47.8057 39.3762 48.4759 37.3072C49.1605 36.3391 49.9413 35.4202 50.8589 34.5849C51.7811 33.7454 53.0099 33.3655 54.2539 33.311L55.8335 33.2418C56.7844 33.2001 57.6677 32.7369 58.2446 31.9774L58.4258 31.7389C59.1791 30.747 59.1924 29.3762 58.4585 28.3698C57.9043 27.61 57.0083 27.1783 56.0708 27.2193L53.6713 27.3244C52.9523 27.3559 52.2191 27.3087 51.5662 27.0048C49.8102 26.1873 48.4382 24.5495 47.3442 22.7031C47.2162 21.5183 47.1933 20.3062 47.3293 19.0657C47.4655 17.8239 48.1349 16.7225 49.0306 15.8547L50.1679 14.753C50.8526 14.0897 51.2082 13.1556 51.1386 12.2033L51.1167 11.9042C51.0258 10.6606 50.1303 9.62503 48.9159 9.35917C47.999 9.15845 47.0428 9.43071 46.3677 10.0847L44.64 11.7584C44.1223 12.2599 43.542 12.712 42.8523 12.9183C41.0427 13.4597 38.9912 13.1735 36.9992 12.5506C36.2115 11.9022 35.4668 11.1804 34.7877 10.3605C33.9919 9.39964 33.6671 8.15151 33.6671 6.9023V5.31626C33.6671 4.36141 33.2443 3.4559 32.5131 2.84462L32.2834 2.65263C31.3285 1.85433 29.9639 1.78121 28.9296 2.47291C28.1488 2.99513 27.6798 3.87429 27.6798 4.81573V7.22507C27.6798 7.9471 27.6008 8.67986 27.2696 9.32092Z" fill="#49BEAA"/>
<path d="M18.1998 15.3215C21.4634 14.168 25.665 12.4272 27.2696 9.32092C27.6008 8.67986 27.6798 7.9471 27.6798 7.22507V4.81573C27.6798 3.87429 28.1488 2.99513 28.9296 2.47291C29.9639 1.78121 31.3285 1.85433 32.2834 2.65263L32.5131 2.84462C33.2443 3.4559 33.6671 4.36141 33.6671 5.31626V6.9023C33.6671 8.15151 33.9919 9.39964 34.7877 10.3605C37.3733 13.4824 40.9104 15.1815 44.1449 16.8231M45.1947 18.1766C46.4858 21.3971 48.4027 25.5321 51.5662 27.0048C52.2191 27.3087 52.9523 27.3559 53.6713 27.3244L56.0708 27.2193C57.0083 27.1783 57.9043 27.61 58.4585 28.3698C59.1924 29.3762 59.1791 30.747 58.4258 31.7389L58.2446 31.9774C57.6677 32.7369 56.7844 33.2001 55.8335 33.2418L54.2539 33.311C53.0099 33.3655 51.7811 33.7454 50.8589 34.5849C47.8626 37.3125 46.3248 40.9315 44.831 44.2448M50.4064 32.7691C48.8575 35.8731 47.0406 40.0533 48.0373 43.406C48.243 44.0979 48.6936 44.68 49.1935 45.1994L50.8619 46.9325C51.5138 47.6098 51.7852 48.569 51.5851 49.4888C51.3201 50.7071 50.2879 51.6055 49.0482 51.6967L48.75 51.7186C47.8008 51.7885 46.8696 51.4317 46.2084 50.7448L45.1101 49.6039C44.2451 48.7053 43.1472 48.0339 41.9094 47.8972C37.8877 47.4534 34.1668 48.696 30.7033 49.7692M43.2341 45.465C39.9912 46.6755 35.8205 48.4896 34.2701 51.6234C33.9502 52.2702 33.884 53.0042 33.8965 53.7262L33.9384 56.1351C33.9548 57.0764 33.5012 57.9637 32.7295 58.4995C31.7074 59.2092 30.3418 59.16 29.3731 58.3785L29.1401 58.1906C28.3984 57.5922 27.9599 56.6942 27.9433 55.7395L27.9157 54.1537C27.894 52.9047 27.5475 51.6624 26.7351 50.7157C24.0956 47.6395 20.5295 46.0026 17.2669 44.4179M28.6361 50.0892C25.5153 48.5898 21.3173 46.8403 17.9932 47.8986C17.3071 48.1169 16.7348 48.5791 16.2259 49.0896L14.5276 50.7933C13.864 51.459 12.9127 51.7479 11.9924 51.5633C10.7735 51.3188 9.86013 50.2991 9.7476 49.0572L9.72053 48.7585C9.63436 47.8076 9.97368 46.8674 10.6467 46.1922L11.7647 45.0707C12.6452 44.1874 13.2953 43.0744 13.4098 41.8305C13.782 37.7889 12.4786 34.0784 11.3486 30.6232M14.6219 42.7857C13.6445 39.4559 12.1315 35.1556 9.12325 33.3856C8.50243 33.0202 7.77713 32.9028 7.05837 32.865L4.65995 32.7389C3.72277 32.6896 2.87215 32.1738 2.39316 31.3642C1.75872 30.2918 1.90293 28.9286 2.74759 28.0137L2.95073 27.7937C3.5975 27.0932 4.52104 26.717 5.47156 26.767L7.05041 26.85C8.29396 26.9154 9.55343 26.6553 10.5516 25.9084C13.7946 23.4815 15.6712 20.027 17.4746 16.8725M11.2852 28.2632C12.7252 25.1068 14.3956 20.8656 13.2829 17.5498C13.0532 16.8656 12.5827 16.2996 12.0649 15.798L10.3373 14.1243C9.66219 13.4703 9.35759 12.5212 9.52555 11.5949C9.74802 10.3681 10.7484 9.43413 11.9842 9.29958L12.2814 9.26722C13.2276 9.16419 14.1706 9.48813 14.8553 10.1514L15.9926 11.2532C16.8884 12.121 18.009 12.7536 19.2508 12.8468C23.2855 13.1496 26.9609 11.7775 30.3849 10.5837M32.2491 10.5416C35.3433 12.0954 39.5102 13.9182 42.8523 12.9183C43.542 12.712 44.1223 12.2599 44.64 11.7584L46.3677 10.0847C47.0428 9.43071 47.999 9.15845 48.9159 9.35917C50.1303 9.62503 51.0258 10.6606 51.1167 11.9042L51.1386 12.2033C51.2082 13.1556 50.8526 14.0897 50.1679 14.753L49.0306 15.8547C48.1349 16.7225 47.4655 17.8239 47.3293 19.0657C46.8869 23.1002 48.1255 26.8329 49.1953 30.3073" stroke="#49BEAA" stroke-width="3"/>
<path d="M26.5259 12.6172L26.3388 13.2157C25.6369 15.462 23.0902 16.5451 20.9853 15.4927L20.727 15.3635C17.4523 13.7261 14.025 17.2952 15.7936 20.5009C16.9334 22.5668 15.8926 25.1586 13.6406 25.8623L12.9147 26.0892C9.09729 27.2821 8.77674 32.5605 12.4217 34.2066L13.8273 34.8413C15.8142 35.7387 16.6265 38.1305 15.597 40.0523C13.8623 43.2903 17.3156 46.8422 20.6012 45.1994L21.1174 44.9413C23.1999 43.9001 25.7265 44.8769 26.567 47.0482L27.0311 48.247C28.3843 51.7427 33.3621 51.6499 34.5841 48.1062C35.3478 45.8913 37.8357 44.7954 39.9854 45.727L40.5473 45.9705C44.0996 47.5098 47.6368 43.7735 45.9054 40.3108C44.8615 38.223 45.7457 35.6854 47.8609 34.6983L48.5184 34.3914C52.126 32.7079 51.6977 27.4462 47.8653 26.3684L47.3137 26.2132C45.0534 25.5775 43.9021 23.067 44.895 20.9393L45.3069 20.0567C46.7536 16.9566 43.3504 13.8363 40.3872 15.5458C38.5804 16.5882 36.2687 15.8284 35.4326 13.9174L34.6685 12.1709C33.0545 8.48163 27.727 8.77367 26.5259 12.6172Z" fill="#A3EBDF"/>
<circle cx="28" cy="28" r="6" fill="#49BEAA"/>
<circle cx="36" cy="37" r="3" fill="#49BEAA"/>
</svg>
